<svg xmlns="http://www.w3.org/2000/svg" width="62.999" height="78.999" viewBox="0 0 62.999 78.999">
  <g id="Logo" transform="translate(-85.001 -49)">
    <path id="Shape_11" data-name="Shape 11" d="M114.078,126.882l-18.9-21.437-.114.091-2.044-2.541-.038-.048A34.774,34.774,0,0,1,85,80.7a30.694,30.694,0,0,1,9.292-22.451A31.033,31.033,0,0,1,116.433,49h.085a31.2,31.2,0,0,1,22.173,9.237A30.708,30.708,0,0,1,148,80.7a34.689,34.689,0,0,1-8.036,22.274l-.158.183-9.718,10.359.215.245-2.358,2.04-2.136,2.277-.239-.222-.247.213-2.05-2.346-2.288-2.124.223-.238-.508-.581,0,0-2.1-2.411-2.222-2.542,0,0-1.719-1.973.011-.009L104.256,93.8a10.739,10.739,0,0,1-2.881-8.585,11.111,11.111,0,0,1,4.028-8,11.273,11.273,0,0,1,8.424-2.656,11.747,11.747,0,0,1,7.943,3.945l9.062,10.426a3.268,3.268,0,0,1-.338,4.629,3.31,3.31,0,0,1-4.653-.336l-9.073-10.436-.023-.027a3.722,3.722,0,0,0-1.086-.9c-.086-.046-.169-.1-.25-.149a3.864,3.864,0,0,0-1.979-.6c-.052,0-.105-.006-.158-.012a4.616,4.616,0,0,0-3.61,1.13,4.532,4.532,0,0,0-1.7,3.436c0,.077-.011.154-.02.23a3.867,3.867,0,0,0,.168,1.8c.013.036.024.073.036.11a3.871,3.871,0,0,0,.924,1.5q.066.068.128.14l12.62,14.605.007.008,1.8,2.063,2.115,2.419,9.162-9.767A27.911,27.911,0,0,0,141.4,80.7a24.048,24.048,0,0,0-7.369-17.819,24.654,24.654,0,0,0-35.074.01A24.037,24.037,0,0,0,91.6,80.7a28,28,0,0,0,6.515,18.121l20.924,23.727a3.292,3.292,0,0,1-4.96,4.329Z" fill="#835fa8"/>
  </g>
</svg>
