<svg xmlns="http://www.w3.org/2000/svg" width="1946" height="639" viewBox="0 0 1946 639">
  <g id="Text" transform="translate(135 -1370)">
    <rect id="Rectangle_17" data-name="Rectangle 17" width="1946" height="536" transform="translate(-135 1370)" fill="#f4f8fb"/>
    <path id="Shape_10" data-name="Shape 10" d="M671.328,1874A14.361,14.361,0,0,0,657,1888.311v106.378A14.361,14.361,0,0,0,671.328,2009H887.672A14.361,14.361,0,0,0,902,1994.689V1888.311A14.361,14.361,0,0,0,887.672,1874Zm194.257,84.912a14.362,14.362,0,0,1-14.327,14.311H710.37a14.362,14.362,0,0,1-14.328-14.311v-38.64a14.361,14.361,0,0,1,14.328-14.311h12.178c7.88,0,17.779,5.439,22,12.088,0,0,12,18.919,36.269,18.919s36.269-18.919,36.269-18.919c4.218-6.649,14.116-12.088,22-12.088h12.178a14.361,14.361,0,0,1,14.327,14.311Z" fill="#f4f8fb"/>
    <g id="Text-2" data-name="Text">
      <text id="Flannel_ennui_narwhal_craft_beer_twee_Vice_plaid_authentic_synth._Kickstarter_umami_Intelligentsia_kogi._Try-hard_flannel_literally_chambray_blog_crucifix_put_a_bird_on_it_four_dollar_toast_cardigan_scenester_aesthetic_sartorial_chia_messenger_bag_Pinte" data-name="Flannel ennui narwhal, craft beer twee Vice plaid authentic synth.

Kickstarter umami Intelligentsia kogi. Try-hard flannel literally, chambray blog crucifix put a bird on it four dollar toast cardigan scenester aesthetic sartorial chia messenger bag Pinte" transform="translate(210.265 1515.745)" fill="#696f7c" font-size="19.994" font-family="OpenSans-Light, Open Sans" font-weight="300"><tspan x="0" y="21">Flannel ennui narwhal, craft beer twee </tspan><tspan x="0" y="50.992">Vice plaid authentic synth.</tspan><tspan fill="#2b303b" font-size="14.996" font-family="OpenSans, Open Sans" font-weight="400"><tspan x="0" y="80.983"></tspan></tspan><tspan fill="#44484f" font-size="13.996" font-family="OpenSans, Open Sans" font-weight="400"><tspan x="0" y="110.975">Kickstarter umami Intelligentsia kogi. Try-hard flannel </tspan><tspan x="0" y="140.966">literally, chambray blog crucifix put a bird on it four </tspan><tspan x="0" y="170.958">dollar toast cardigan scenester aesthetic sartorial chia </tspan><tspan x="0" y="200.95">messenger bag Pinterest. </tspan><tspan x="0" y="230.941"></tspan><tspan x="0" y="260.933"></tspan></tspan></text>
      <text id="Design_Features" data-name="Design &amp; Features" transform="translate(208 1446.8)" fill="#2b303b" font-size="30" font-family="OpenSans-Light, Open Sans" font-weight="300"><tspan x="0" y="32">Design &amp; Features</tspan></text>
      <g id="Button">
        <rect id="Rounded_Rectangle_4" data-name="Rounded Rectangle 4" width="165" height="44" rx="22" transform="translate(213 1752)" fill="#3dd2ae"/>
        <text id="See_More" data-name="See More" transform="translate(213.564 1764.413)" fill="#fff" font-size="14" font-family="OpenSans-Semibold, Open Sans" font-weight="600"><tspan x="50.697" y="15">See More</tspan></text>
      </g>
    </g>
    <g id="Text-3" data-name="Text">
      <text id="Flannel_ennui_narwhal_craft_beer_twee_Vice_plaid_authentic_synth._Kickstarter_umami_Intelligentsia_kogi._Try-hard_flannel_literally_chambray_blog_crucifix_put_a_bird_on_it_four_dollar_toast_cardigan_scenester_aesthetic_sartorial_chia_messenger_bag_Pinte-2" data-name="Flannel ennui narwhal, craft beer twee Vice plaid authentic synth.

Kickstarter umami Intelligentsia kogi. Try-hard flannel literally, chambray blog crucifix put a bird on it four dollar toast cardigan scenester aesthetic sartorial chia messenger bag Pinte" transform="translate(604.265 1515.745)" fill="#696f7c" font-size="19.994" font-family="OpenSans-Light, Open Sans" font-weight="300"><tspan x="0" y="21">Flannel ennui narwhal, craft beer twee </tspan><tspan x="0" y="50.992">Vice plaid authentic synth.</tspan><tspan fill="#2b303b" font-size="14.996" font-family="OpenSans, Open Sans" font-weight="400"><tspan x="0" y="80.983"></tspan></tspan><tspan fill="#44484f" font-size="13.996" font-family="OpenSans, Open Sans" font-weight="400"><tspan x="0" y="110.975">Kickstarter umami Intelligentsia kogi. Try-hard flannel </tspan><tspan x="0" y="140.966">literally, chambray blog crucifix put a bird on it four </tspan><tspan x="0" y="170.958">dollar toast cardigan scenester aesthetic sartorial chia </tspan><tspan x="0" y="200.95">messenger bag Pinterest. </tspan><tspan x="0" y="230.941"></tspan><tspan x="0" y="260.933"></tspan></tspan></text>
      <text id="Pocket_Power" data-name="Pocket Power" transform="translate(602 1446.8)" fill="#2b303b" font-size="30" font-family="OpenSans-Light, Open Sans" font-weight="300"><tspan x="0" y="32">Pocket Power</tspan></text>
      <g id="Button-2" data-name="Button">
        <rect id="Rounded_Rectangle_4-2" data-name="Rounded Rectangle 4" width="165" height="44" rx="22" transform="translate(607 1752)" fill="#3dd2ae"/>
        <text id="Buy_Now" data-name="Buy Now" transform="translate(607.564 1764.413)" fill="#fff" font-size="14" font-family="OpenSans-Semibold, Open Sans" font-weight="600"><tspan x="52.105" y="15">Buy Now</tspan></text>
      </g>
    </g>
    <g id="Text-4" data-name="Text">
      <text id="Flannel_ennui_narwhal_craft_beer_twee_Vice_plaid_authentic_synth._Kickstarter_umami_Intelligentsia_kogi._Try-hard_flannel_literally_chambray_blog_crucifix_put_a_bird_on_it_four_dollar_toast_cardigan_scenester_aesthetic_sartorial_chia_messenger_bag_Pinte-3" data-name="Flannel ennui narwhal, craft beer twee Vice plaid authentic synth.

Kickstarter umami Intelligentsia kogi. Try-hard flannel literally, chambray blog crucifix put a bird on it four dollar toast cardigan scenester aesthetic sartorial chia messenger bag Pinte" transform="translate(992.265 1515.745)" fill="#696f7c" font-size="19.994" font-family="OpenSans-Light, Open Sans" font-weight="300"><tspan x="0" y="21">Flannel ennui narwhal, craft beer twee </tspan><tspan x="0" y="50.992">Vice plaid authentic synth.</tspan><tspan fill="#2b303b" font-size="14.996" font-family="OpenSans, Open Sans" font-weight="400"><tspan x="0" y="80.983"></tspan></tspan><tspan fill="#44484f" font-size="13.996" font-family="OpenSans, Open Sans" font-weight="400"><tspan x="0" y="110.975">Kickstarter umami Intelligentsia kogi. Try-hard flannel </tspan><tspan x="0" y="140.966">literally, chambray blog crucifix put a bird on it four </tspan><tspan x="0" y="170.958">dollar toast cardigan scenester aesthetic sartorial chia </tspan><tspan x="0" y="200.95">messenger bag Pinterest. </tspan><tspan x="0" y="230.941"></tspan><tspan x="0" y="260.933"></tspan></tspan></text>
      <text id="Inspired_by_the_world" data-name="Inspired by the world" transform="translate(990 1446.8)" fill="#2b303b" font-size="30" font-family="OpenSans-Light, Open Sans" font-weight="300"><tspan x="0" y="32">Inspired by the world</tspan></text>
      <g id="Button-3" data-name="Button">
        <rect id="Rounded_Rectangle_4-3" data-name="Rounded Rectangle 4" width="165" height="44" rx="22" transform="translate(995 1752)" fill="#3dd2ae"/>
        <text id="Contact_Us" data-name="Contact Us" transform="translate(995.564 1764.413)" fill="#fff" font-size="14" font-family="OpenSans-Semibold, Open Sans" font-weight="600"><tspan x="45.611" y="15">Contact Us</tspan></text>
      </g>
    </g>
  </g>
</svg>
